<?xml version="1.0" standalone="no"?>
<!DOCTYPE svg PUBLIC "-//W3C//DTD SVG 20010904//EN"
 "http://www.w3.org/TR/2001/REC-SVG-20010904/DTD/svg10.dtd">
<svg version="1.0" xmlns="http://www.w3.org/2000/svg"
 width="512.000000pt" height="512.000000pt" viewBox="0 0 512.000000 512.000000"
 preserveAspectRatio="xMidYMid meet">
<metadata>
Created by potrace 1.11, written by Peter Selinger 2001-2013
</metadata>
<g transform="translate(0.000000,512.000000) scale(0.100000,-0.100000)"
fill="#000000" stroke="none">
<path d="M825 3568 c-80 -29 -115 -80 -115 -165 0 -110 75 -168 215 -168 69 0
87 4 126 27 56 33 79 76 79 151 0 105 -66 160 -200 164 -41 1 -88 -3 -105 -9z"/>
<path d="M1758 3050 c-194 -35 -308 -126 -308 -245 0 -49 35 -122 72 -149 43
-31 132 -33 187 -4 25 13 53 35 64 49 22 31 32 94 23 143 -7 36 -59 99 -101
122 -19 10 -18 12 12 28 20 10 56 16 97 16 59 0 69 -3 100 -31 47 -40 56 -79
56 -228 l0 -124 -39 -37 c-29 -28 -68 -47 -157 -79 -175 -63 -255 -104 -302
-155 -74 -80 -90 -200 -41 -303 45 -94 144 -140 277 -130 93 7 163 40 225 106
l45 48 6 -29 c8 -41 42 -85 78 -104 79 -41 267 -24 350 32 32 21 36 27 27 42
-11 18 -13 18 -47 1 -25 -13 -40 -16 -53 -8 -18 9 -19 28 -19 347 0 376 -8
483 -42 551 -28 55 -90 105 -161 127 -60 18 -276 28 -349 14z m172 -942 c-24
-22 -40 -28 -76 -28 -39 0 -51 5 -80 34 -36 36 -40 57 -35 156 4 72 32 121
102 181 35 30 75 66 89 80 l25 27 3 -212 3 -211 -31 -27z"/>
<path d="M1020 3039 c-25 -4 -121 -8 -213 -8 -168 -1 -168 -1 -165 -23 2 -16
12 -24 38 -29 45 -10 77 -48 85 -101 3 -24 5 -286 3 -583 -3 -523 -4 -541 -24
-585 -27 -58 -83 -107 -139 -121 -35 -9 -45 -16 -45 -32 0 -19 4 -20 93 -14
251 17 386 120 444 340 14 53 17 145 20 615 l5 552 -29 -1 c-15 -1 -48 -5 -73
-10z"/>
<path d="M2624 2940 c3 -52 6 -150 6 -218 0 -121 0 -123 21 -120 19 3 24 15
40 90 40 201 155 304 331 296 l65 -3 -243 -520 c-134 -286 -244 -524 -244
-530 0 -7 145 -9 422 -7 232 1 423 4 424 5 1 1 -1 98 -4 215 -5 211 -5 212
-27 212 -20 0 -23 -7 -28 -59 -14 -132 -87 -245 -192 -296 -64 -32 -223 -50
-213 -24 4 8 115 245 247 528 133 283 241 517 241 520 0 3 -192 6 -426 6
l-427 0 7 -95z"/>
<path d="M3712 2820 c3 -213 3 -215 25 -218 18 -3 23 3 28 35 39 244 143 353
335 353 39 0 70 -3 70 -6 0 -3 -110 -242 -245 -531 -135 -289 -245 -526 -243
-527 2 0 193 0 426 2 l422 3 0 214 0 215 -24 0 c-21 0 -24 -6 -35 -72 -32
-193 -147 -304 -326 -316 -41 -2 -75 -1 -75 4 0 5 110 245 245 533 135 288
245 524 245 525 0 0 -191 1 -425 1 l-425 0 2 -215z"/>
</g>
</svg>
